<svg xmlns="http://www.w3.org/2000/svg" xmlns:xlink="http://www.w3.org/1999/xlink" viewBox="0 0 33.68 45.77"><defs><style>.cls-1{fill:url(#Gradiente_sem_nome_4);}.cls-2{fill:url(#Gradiente_sem_nome_5);}.cls-3{fill:url(#Gradiente_sem_nome_5-2);}.cls-4{fill:url(#Gradiente_sem_nome_4-2);}.cls-5{fill:url(#Gradiente_sem_nome_5-3);}</style><linearGradient id="Gradiente_sem_nome_4" y1="36.24" x2="33.68" y2="36.24" gradientTransform="matrix(1, 0, 0, -1, 0, 45.91)" gradientUnits="userSpaceOnUse"><stop offset="0.24" stop-color="#0093da"/><stop offset="0.76" stop-color="#00e8fc"/></linearGradient><linearGradient id="Gradiente_sem_nome_5" x1="9.43" y1="22.19" x2="12.11" y2="22.8" gradientTransform="matrix(1, 0, 0, -1, 0, 45.91)" gradientUnits="userSpaceOnUse"><stop offset="0" stop-color="#0093da"/><stop offset="1" stop-color="#00e8fc"/></linearGradient><linearGradient id="Gradiente_sem_nome_5-2" x1="-33.68" y1="62.42" x2="-29.48" y2="62.42" gradientTransform="matrix(0.82, -0.18, 0.18, -0.82, 36.61, 82.52)" xlink:href="#Gradiente_sem_nome_5"/><linearGradient id="Gradiente_sem_nome_4-2" x1="7.23" y1="15.64" x2="27.53" y2="15.64" xlink:href="#Gradiente_sem_nome_4"/><linearGradient id="Gradiente_sem_nome_5-3" x1="12.76" y1="3.7" x2="19.88" y2="3.7" xlink:href="#Gradiente_sem_nome_5"/></defs><g id="Camada_2" data-name="Camada 2"><g id="Camada_1-2" data-name="Camada 1"><g id="Camada_1-2-2" data-name="Camada 1-2"><path class="cls-1" d="M33.68,2.56a16.86,16.86,0,0,1-15.6,16.78H15.62A16.85,16.85,0,0,1,0,2.56V2.38H0a1.09,1.09,0,0,1,.31-1l1.09-1A1.15,1.15,0,0,1,3,.34a1.08,1.08,0,0,1,.33.81A1.14,1.14,0,0,1,3,2l-.55.55v.06a14.37,14.37,0,0,0,28.73,0l-.62-.62a1.15,1.15,0,0,1,0-1.61,1.15,1.15,0,0,1,1.61,0l1.08,1.08a1.06,1.06,0,0,1,.33.73h0A1,1,0,0,1,33.68,2.56Z"/><path class="cls-2" d="M12,24.67a1,1,0,0,1-1.41,0l-1-1a1,1,0,1,1,1.21-1.59.64.64,0,0,1,.2.2l1,1A1,1,0,0,1,12,24.67Z"/><path class="cls-3" d="M24.81,38a1,1,0,0,1-.71-.3l-1-1a1,1,0,0,1,1.42-1.42h0l1,1A1,1,0,0,1,24.81,38Z"/><path class="cls-4" d="M26.18,27.09a4.59,4.59,0,0,1,0,6.49L16.8,43l-.26.24-.81-.82.26-.24,9.38-9.38a3.44,3.44,0,1,0-4.64-5.08,2.28,2.28,0,0,0-.22.22L15,33.35a4.53,4.53,0,0,1-2.94,1.33h0a4.58,4.58,0,0,1-3.53-7.82l9.38-9.38.21-.2.82.82-.21.2L9.39,27.68a3.44,3.44,0,0,0,4.86,4.86l5.45-5.45a4.6,4.6,0,0,1,2.87-1.33h.09A4.53,4.53,0,0,1,26.18,27.09Z"/><circle class="cls-5" cx="16.32" cy="42.21" r="3.56"/></g></g></g></svg>