<svg xmlns="http://www.w3.org/2000/svg" xmlns:xlink="http://www.w3.org/1999/xlink" viewBox="0 0 197.23 45.76"><defs><style>.cls-1{fill:#fff;}.cls-2{fill:url(#Gradiente_sem_nome_3);}.cls-3{fill:url(#Gradiente_sem_nome_4);}.cls-4{fill:url(#Gradiente_sem_nome_4-2);}.cls-5{fill:url(#Gradiente_sem_nome_3-2);}.cls-6{fill:url(#Gradiente_sem_nome_4-3);}</style><linearGradient id="Gradiente_sem_nome_3" y1="9.67" x2="33.66" y2="9.67" gradientUnits="userSpaceOnUse"><stop offset="0.24" stop-color="#0093da"/><stop offset="0.76" stop-color="#00e8fc"/></linearGradient><linearGradient id="Gradiente_sem_nome_4" x1="9.42" y1="23.77" x2="12.1" y2="23.16" gradientUnits="userSpaceOnUse"><stop offset="0" stop-color="#0093da"/><stop offset="1" stop-color="#00e8fc"/></linearGradient><linearGradient id="Gradiente_sem_nome_4-2" x1="-201.33" y1="-187.03" x2="-197.13" y2="-187.03" gradientTransform="matrix(0.82, -0.18, -0.18, 0.82, 152.15, 152.15)" xlink:href="#Gradiente_sem_nome_4"/><linearGradient id="Gradiente_sem_nome_3-2" x1="7.21" y1="30.23" x2="27.51" y2="30.23" xlink:href="#Gradiente_sem_nome_3"/><linearGradient id="Gradiente_sem_nome_4-3" x1="12.74" y1="42.2" x2="19.86" y2="42.2" xlink:href="#Gradiente_sem_nome_4"/></defs><g id="Camada_2" data-name="Camada 2"><g id="Camada_1-2" data-name="Camada 1"><path class="cls-1" d="M49.38,8.8H62.26c6.25,0,10.62,4.37,10.62,10.86s-4.37,11-10.62,11H55.44V42.17H49.38ZM61.13,25.39c3.53,0,5.59-2.25,5.59-5.73S64.66,14,61.22,14H55.44V25.39Z"/><path class="cls-1" d="M77,8.8h5.92v25c0,2.64.89,3.29,2.44,3.29.47,0,.9,0,.9,0v5.21a13.84,13.84,0,0,1-1.88.14c-3.29,0-7.38-.84-7.38-7.7Z"/><path class="cls-1" d="M102.82,27.13h.79V26.8c0-3.15-2-4.23-4.6-4.23a12.84,12.84,0,0,0-6.58,2.3L90.17,20.6a16.2,16.2,0,0,1,9.4-3c6.3,0,10,3.47,10,9.54v15H104v-2a16.13,16.13,0,0,1,.09-1.7H104a7.78,7.78,0,0,1-7.29,4.23c-4.27,0-8.13-2.68-8.13-7.47C88.62,27.65,98.91,27.13,102.82,27.13Zm-4.56,11c3.15,0,5.4-3.38,5.4-6.3v-.56h-1c-3.06,0-8,.42-8,3.76C94.64,36.58,95.81,38.08,98.26,38.08Z"/><path class="cls-1" d="M115.74,18.2h5.73V21a15.49,15.49,0,0,1-.09,1.65h.09a9.31,9.31,0,0,1,8.51-5c5.31,0,8.32,2.77,8.32,9.11V42.17h-5.92V28c0-2.92-.76-4.89-3.81-4.89A6.61,6.61,0,0,0,122.13,28a10,10,0,0,0-.42,3.19v11h-6Z"/><path class="cls-1" d="M144.55,8.8h5.92v5.31h-5.92Zm0,9.4h6v24h-6Z"/><path class="cls-1" d="M157.8,35a10,10,0,0,0,6.53,2.63c1.69,0,3.15-.75,3.15-2.16,0-3.58-11.65-3.11-11.65-10.81,0-4.47,4-7,9.16-7,5.41,0,8,2.72,8,2.72l-2.21,4.42a9.11,9.11,0,0,0-5.88-2.07c-1.55,0-3.05.66-3.05,2.16,0,3.39,11.65,3,11.65,10.67,0,4-3.47,7.19-9.16,7.19a13.43,13.43,0,0,1-9.31-3.52Z"/><path class="cls-1" d="M190.51,27.13h.8V26.8c0-3.15-2-4.23-4.61-4.23a12.84,12.84,0,0,0-6.58,2.3l-2.25-4.27a16.16,16.16,0,0,1,9.4-3c6.29,0,10,3.47,10,9.54v15h-5.5v-2a14.54,14.54,0,0,1,.1-1.7h-.1a7.74,7.74,0,0,1-7.28,4.23c-4.28,0-8.13-2.68-8.13-7.47C176.32,27.65,186.61,27.13,190.51,27.13Zm-4.56,11c3.15,0,5.41-3.38,5.41-6.3v-.56h-1c-3,0-8,.42-8,3.76C182.33,36.58,183.51,38.08,186,38.08Z"/><path class="cls-2" d="M33.66,2.55a16.86,16.86,0,0,1-15.6,16.78H15.6A16.85,16.85,0,0,1,0,2.55a1.09,1.09,0,0,1,0-.18,0,0,0,0,1,0,0,1.09,1.09,0,0,1,.31-1L1.4.33A1.15,1.15,0,0,1,3,.33a1.13,1.13,0,0,1,.33.81,1.13,1.13,0,0,1-.33.8l-.55.55v.06a14.37,14.37,0,0,0,28.73,0l-.62-.62a1.15,1.15,0,0,1,0-1.61,1.15,1.15,0,0,1,1.61,0L33.25,1.4a1.1,1.1,0,0,1,.33.73h0A1.11,1.11,0,0,1,33.66,2.55Z"/><path class="cls-3" d="M12,24.66a1,1,0,0,1-1.41,0l-1-1A1,1,0,1,1,11,22.27l1,1A1,1,0,0,1,12,24.66Z"/><path class="cls-4" d="M24.79,38a1,1,0,0,1-.71-.3l-1-1a1,1,0,0,1,1.42-1.42l1,1a1,1,0,0,1,0,1.41A1,1,0,0,1,24.79,38Z"/><path class="cls-5" d="M26.16,27.08a4.59,4.59,0,0,1,0,6.49L16.78,43l-.26.24-.81-.82a2.84,2.84,0,0,0,.26-.24l9.38-9.38a3.44,3.44,0,1,0-4.86-4.86L15,33.34a4.51,4.51,0,0,1-2.94,1.33h0a4.58,4.58,0,0,1-3.53-7.82l9.38-9.38.21-.2.82.82-.21.2L9.37,27.67a3.44,3.44,0,0,0,4.86,4.86l5.45-5.45a4.59,4.59,0,0,1,2.87-1.33h.09A4.53,4.53,0,0,1,26.16,27.08Z"/><circle class="cls-6" cx="16.3" cy="42.2" r="3.56"/></g></g></svg>